<svg version="1.1" id="Layer_1" xmlns="http://www.w3.org/2000/svg" xmlns:xlink="http://www.w3.org/1999/xlink" x="0px" y="0px"
	 width="100%" viewBox="0 0 576 512" enable-background="new 0 0 576 512" xml:space="preserve">
<path fill="#053E09" opacity="1.000000" stroke="none" 
	d="
M1.000000,379.000000 
	C1.000000,373.311951 1.000000,367.623932 1.302825,361.299500 
	C2.561474,358.763733 3.844802,356.958862 4.424052,354.950867 
	C13.235007,324.407288 22.063734,293.867554 30.554079,263.234314 
	C31.607033,259.435211 31.675871,254.848862 30.627409,251.063019 
	C22.098938,220.267807 13.226911,189.567368 4.337577,158.873367 
	C3.728367,156.769806 2.135437,154.951157 0.999998,153.000000 
	C1.000000,147.311966 1.000000,141.623917 1.331916,135.374146 
	C7.392128,128.679825 14.790950,128.782303 22.381113,128.938828 
	C33.864582,129.175629 45.358643,129.140045 56.843876,128.953659 
	C63.079685,128.852493 67.564995,131.331573 71.236382,136.288452 
	C84.104263,153.661865 97.184990,170.877502 110.091583,188.222488 
	C112.444466,191.384506 115.055046,193.083481 119.225822,193.063995 
	C149.028137,192.924728 178.831451,193.010681 208.634369,192.971863 
	C214.582275,192.964127 215.019791,192.346405 213.361237,186.523087 
	C199.601974,138.213379 185.812698,89.912209 172.028168,41.609692 
	C170.521851,36.331379 169.204636,30.986374 167.420624,25.802769 
	C164.039169,15.977669 166.732071,7.920639 174.000000,1.000000 
	C199.020889,1.000000 224.041794,1.000000 249.669250,1.307705 
	C251.286407,2.450832 252.188950,3.492515 253.325317,4.087903 
	C260.222504,7.701605 264.882965,13.256009 268.633209,20.024389 
	C278.071777,37.058884 287.864624,53.897251 297.535675,70.802666 
	C319.604980,109.380669 341.768372,147.905365 363.656250,186.585999 
	C366.308807,191.273697 369.305603,193.124344 374.666962,193.097214 
	C411.826447,192.909302 448.987335,192.987396 486.147766,193.023697 
	C489.134094,193.026611 492.145172,193.169540 495.101990,193.566071 
	C509.294830,195.469467 522.592407,200.349838 535.211060,206.836960 
	C548.303711,213.567673 560.516479,221.690994 569.245850,233.982971 
	C572.003418,237.865891 574.424805,241.987579 577.000000,246.000000 
	C577.000000,253.354248 577.000000,260.708496 576.691772,268.674347 
	C574.059570,272.889709 572.064880,276.764343 569.359253,280.054230 
	C548.254395,305.716156 520.328247,319.245300 487.821533,320.622253 
	C449.908875,322.228210 411.876007,321.068695 373.896027,320.922241 
	C369.104980,320.903778 366.228943,322.563171 364.012634,326.777618 
	C359.754822,334.874115 355.070312,342.747070 350.529449,350.693665 
	C325.514465,394.470276 300.530060,438.264465 275.439697,481.997864 
	C269.033081,493.164825 264.071320,505.617615 251.070969,511.376160 
	C250.572098,511.597107 250.350693,512.444519 250.000000,513.000000 
	C224.979111,513.000000 199.958206,513.000000 174.359909,512.683838 
	C166.242081,505.869110 164.610382,497.949677 167.323822,488.501495 
	C182.666687,435.077911 197.848679,381.608185 213.100586,328.158478 
	C214.949142,321.680298 214.513474,321.016266 207.656265,321.011749 
	C178.503677,320.992554 149.350647,321.084686 120.198975,320.921661 
	C115.545341,320.895660 112.521103,322.475159 109.775185,326.203522 
	C96.947678,343.620575 83.854660,360.841858 70.908524,378.171967 
	C67.470345,382.774384 63.123302,385.127136 57.267673,385.034302 
	C47.275074,384.875885 37.277962,385.023712 27.282911,384.992065 
	C18.080448,384.962952 8.499750,386.524719 1.000000,379.000000 
z"/>
<path fill="none" opacity="1.000000" stroke="none" 
	d="
M577.000000,245.531342 
	C574.424805,241.987579 572.003418,237.865891 569.245850,233.982971 
	C560.516479,221.690994 548.303711,213.567673 535.211060,206.836960 
	C522.592407,200.349838 509.294830,195.469467 495.101990,193.566071 
	C492.145172,193.169540 489.134094,193.026611 486.147766,193.023697 
	C448.987335,192.987396 411.826447,192.909302 374.666962,193.097214 
	C369.305603,193.124344 366.308807,191.273697 363.656250,186.585999 
	C341.768372,147.905365 319.604980,109.380669 297.535675,70.802666 
	C287.864624,53.897251 278.071777,37.058884 268.633209,20.024389 
	C264.882965,13.256009 260.222504,7.701605 253.325317,4.087903 
	C252.188950,3.492515 251.286407,2.450832 250.137909,1.307705 
	C358.916595,1.000000 467.833160,1.000000 577.000000,1.000000 
	C577.000000,82.354057 577.000000,163.708374 577.000000,245.531342 
z"/>
<path fill="none" opacity="1.000000" stroke="none" 
	d="
M250.468658,513.000000 
	C250.350693,512.444519 250.572098,511.597107 251.070969,511.376160 
	C264.071320,505.617615 269.033081,493.164825 275.439697,481.997864 
	C300.530060,438.264465 325.514465,394.470276 350.529449,350.693665 
	C355.070312,342.747070 359.754822,334.874115 364.012634,326.777618 
	C366.228943,322.563171 369.104980,320.903778 373.896027,320.922241 
	C411.876007,321.068695 449.908875,322.228210 487.821533,320.622253 
	C520.328247,319.245300 548.254395,305.716156 569.359253,280.054230 
	C572.064880,276.764343 574.059570,272.889709 576.691772,269.142975 
	C577.000000,350.270996 577.000000,431.541992 577.000000,513.000000 
	C468.312500,513.000000 359.624908,513.000000 250.468658,513.000000 
z"/>
<path fill="none" opacity="1.000000" stroke="none" 
	d="
M173.531342,1.000000 
	C166.732071,7.920639 164.039169,15.977669 167.420624,25.802769 
	C169.204636,30.986374 170.521851,36.331379 172.028168,41.609692 
	C185.812698,89.912209 199.601974,138.213379 213.361237,186.523087 
	C215.019791,192.346405 214.582275,192.964127 208.634369,192.971863 
	C178.831451,193.010681 149.028137,192.924728 119.225822,193.063995 
	C115.055046,193.083481 112.444466,191.384506 110.091583,188.222488 
	C97.184990,170.877502 84.104263,153.661865 71.236382,136.288452 
	C67.564995,131.331573 63.079685,128.852493 56.843876,128.953659 
	C45.358643,129.140045 33.864582,129.175629 22.381113,128.938828 
	C14.790950,128.782303 7.392128,128.679825 1.331916,134.906204 
	C1.000000,90.397057 1.000000,45.794113 1.000000,1.000000 
	C58.354088,1.000000 115.708382,1.000000 173.531342,1.000000 
z"/>
<path fill="none" opacity="1.000000" stroke="none" 
	d="
M1.000000,379.468658 
	C8.499750,386.524719 18.080448,384.962952 27.282911,384.992065 
	C37.277962,385.023712 47.275074,384.875885 57.267673,385.034302 
	C63.123302,385.127136 67.470345,382.774384 70.908524,378.171967 
	C83.854660,360.841858 96.947678,343.620575 109.775185,326.203522 
	C112.521103,322.475159 115.545341,320.895660 120.198975,320.921661 
	C149.350647,321.084686 178.503677,320.992554 207.656265,321.011749 
	C214.513474,321.016266 214.949142,321.680298 213.100586,328.158478 
	C197.848679,381.608185 182.666687,435.077911 167.323822,488.501495 
	C164.610382,497.949677 166.242081,505.869110 173.891251,512.683838 
	C116.415611,513.000000 58.831226,513.000000 1.000000,513.000000 
	C1.000000,468.646088 1.000000,424.291687 1.000000,379.468658 
z"/>
<path fill="none" opacity="1.000000" stroke="none" 
	d="
M0.999998,153.468658 
	C2.135437,154.951157 3.728367,156.769806 4.337577,158.873367 
	C13.226911,189.567368 22.098938,220.267807 30.627409,251.063019 
	C31.675871,254.848862 31.607033,259.435211 30.554079,263.234314 
	C22.063734,293.867554 13.235007,324.407288 4.424052,354.950867 
	C3.844802,356.958862 2.561474,358.763733 1.302825,360.831543 
	C1.000000,291.979095 1.000000,222.958206 0.999998,153.468658 
z"/>
</svg>