<svg version="1.1" id="Layer_1" xmlns="http://www.w3.org/2000/svg" xmlns:xlink="http://www.w3.org/1999/xlink" x="0px" y="0px"
	 width="100%" viewBox="0 0 576 512" enable-background="new 0 0 576 512" xml:space="preserve">
<path fill="#DE9F1F" opacity="1.000000" stroke="none" 
	d="
M1.000000,379.000000 
	C1.000000,373.311951 1.000000,367.623932 1.390735,361.454712 
	C2.520437,359.474365 3.502914,358.045929 3.962240,356.465485 
	C12.323855,327.694885 20.737833,298.938385 28.830584,270.091888 
	C30.322409,264.774323 32.094429,258.700562 30.925816,253.622833 
	C26.896961,236.117126 21.729118,218.867676 16.792318,201.578537 
	C12.347608,186.012726 7.656136,170.517059 2.985983,155.016815 
	C2.745193,154.217636 1.680890,153.666580 0.999999,153.000000 
	C1.000000,147.311966 1.000000,141.623917 1.357819,135.461517 
	C7.120762,128.387405 14.492990,128.772766 22.007931,128.932037 
	C33.999264,129.186203 46.003056,129.160324 57.995228,128.926743 
	C63.329624,128.822861 67.375786,131.011353 70.337364,134.946991 
	C83.775414,152.804794 97.043770,170.790588 110.320999,188.768860 
	C112.462456,191.668518 114.741104,193.157944 118.748405,193.127182 
	C149.071671,192.894409 179.397522,192.999985 209.722565,192.999985 
	C211.436127,192.999985 213.149689,192.999985 215.328781,192.999985 
	C214.715500,190.910706 214.344574,189.685440 213.995956,188.453873 
	C205.641785,158.942398 197.351562,129.412628 188.918777,99.923645 
	C181.870056,75.274689 174.667404,50.669689 167.505554,26.053188 
	C165.528549,19.257858 164.686386,12.607218 169.243118,6.397641 
	C170.539627,4.630867 171.750076,2.800955 173.000000,0.999999 
	C198.354233,1.000000 223.708450,1.000000 249.540375,1.369835 
	C250.416229,2.169363 250.733932,2.763037 251.224747,3.003796 
	C257.210846,5.940121 262.607574,9.619246 265.993164,15.539493 
	C273.744171,29.093390 281.317169,42.749107 289.073364,56.299999 
	C303.053925,80.725601 317.163391,105.077446 331.128723,129.511703 
	C342.512878,149.429825 353.738403,169.438599 365.110992,189.363358 
	C366.485931,191.772217 368.267365,193.152847 371.702728,193.134384 
	C410.998444,192.923126 450.295746,192.999649 489.592621,193.001526 
	C490.924438,193.001587 492.287720,192.841064 493.583374,193.063583 
	C512.359863,196.288528 529.989380,202.678192 545.986328,213.060501 
	C558.592712,221.242279 570.206970,230.517914 575.276001,245.601776 
	C575.374390,245.894577 576.404541,245.874237 577.000000,246.000000 
	C577.000000,253.354248 577.000000,260.708496 576.623657,268.541077 
	C575.855957,269.259094 575.236816,269.411285 575.106384,269.751068 
	C570.696899,281.236176 562.384094,289.664764 552.746887,296.586395 
	C532.358276,311.229797 509.928558,320.846710 484.341675,320.958038 
	C446.878754,321.121063 409.414459,321.048920 371.951355,320.911835 
	C368.782562,320.900238 366.713287,321.698700 365.192108,324.403564 
	C358.335480,336.595520 351.429962,348.759979 344.543549,360.935150 
	C334.612091,378.493805 324.744080,396.088715 314.736359,413.603821 
	C300.287720,438.891266 285.633881,464.062012 271.287872,489.407227 
	C266.232239,498.338989 261.214539,507.054169 251.000427,511.078339 
	C250.493286,511.278137 250.325684,512.339661 250.000000,513.000000 
	C224.645767,513.000000 199.291550,513.000000 173.809601,512.775269 
	C164.825928,504.876526 164.816086,495.690857 168.190002,485.302643 
	C172.847610,470.961975 176.816147,456.394226 180.936386,441.882965 
	C189.797592,410.674194 198.565308,379.438843 207.375397,348.215546 
	C209.898895,339.272247 212.436508,330.332947 215.078354,321.000793 
	C181.598877,321.000793 148.798508,320.975891 115.998665,321.095154 
	C114.734085,321.099731 113.090286,322.198944 112.270157,323.279205 
	C99.444145,340.173737 86.695648,357.127441 73.997002,374.118103 
	C69.732399,379.824066 65.876930,385.497070 57.278790,385.119385 
	C46.141182,384.630157 34.965828,384.991882 23.806738,385.002747 
	C15.988477,385.010376 7.794939,386.429108 1.972817,379.061554 
	C1.838176,378.891174 1.332573,379.013977 1.000000,379.000000 
z"/>
<path fill="none" opacity="1.000000" stroke="none" 
	d="
M577.000000,245.531342 
	C576.404541,245.874237 575.374390,245.894577 575.276001,245.601776 
	C570.206970,230.517914 558.592712,221.242279 545.986328,213.060501 
	C529.989380,202.678192 512.359863,196.288528 493.583374,193.063583 
	C492.287720,192.841064 490.924438,193.001587 489.592621,193.001526 
	C450.295746,192.999649 410.998444,192.923126 371.702728,193.134384 
	C368.267365,193.152847 366.485931,191.772217 365.110992,189.363358 
	C353.738403,169.438599 342.512878,149.429825 331.128723,129.511703 
	C317.163391,105.077446 303.053925,80.725601 289.073364,56.299999 
	C281.317169,42.749107 273.744171,29.093390 265.993164,15.539493 
	C262.607574,9.619246 257.210846,5.940121 251.224747,3.003796 
	C250.733932,2.763037 250.416229,2.169363 250.009033,1.369835 
	C358.916595,1.000000 467.833160,1.000000 577.000000,1.000000 
	C577.000000,82.354057 577.000000,163.708374 577.000000,245.531342 
z"/>
<path fill="none" opacity="1.000000" stroke="none" 
	d="
M250.468658,513.000000 
	C250.325684,512.339661 250.493286,511.278137 251.000427,511.078339 
	C261.214539,507.054169 266.232239,498.338989 271.287872,489.407227 
	C285.633881,464.062012 300.287720,438.891266 314.736359,413.603821 
	C324.744080,396.088715 334.612091,378.493805 344.543549,360.935150 
	C351.429962,348.759979 358.335480,336.595520 365.192108,324.403564 
	C366.713287,321.698700 368.782562,320.900238 371.951355,320.911835 
	C409.414459,321.048920 446.878754,321.121063 484.341675,320.958038 
	C509.928558,320.846710 532.358276,311.229797 552.746887,296.586395 
	C562.384094,289.664764 570.696899,281.236176 575.106384,269.751068 
	C575.236816,269.411285 575.855957,269.259094 576.623657,269.009705 
	C577.000000,350.270996 577.000000,431.541992 577.000000,513.000000 
	C468.312500,513.000000 359.624908,513.000000 250.468658,513.000000 
z"/>
<path fill="none" opacity="1.000000" stroke="none" 
	d="
M172.531342,0.999999 
	C171.750076,2.800955 170.539627,4.630867 169.243118,6.397641 
	C164.686386,12.607218 165.528549,19.257858 167.505554,26.053188 
	C174.667404,50.669689 181.870056,75.274689 188.918777,99.923645 
	C197.351562,129.412628 205.641785,158.942398 213.995956,188.453873 
	C214.344574,189.685440 214.715500,190.910706 215.328781,192.999985 
	C213.149689,192.999985 211.436127,192.999985 209.722565,192.999985 
	C179.397522,192.999985 149.071671,192.894409 118.748405,193.127182 
	C114.741104,193.157944 112.462456,191.668518 110.320999,188.768860 
	C97.043770,170.790588 83.775414,152.804794 70.337364,134.946991 
	C67.375786,131.011353 63.329624,128.822861 57.995228,128.926743 
	C46.003056,129.160324 33.999264,129.186203 22.007931,128.932037 
	C14.492990,128.772766 7.120762,128.387405 1.357819,134.993576 
	C1.000000,90.397263 1.000000,45.794529 1.000000,1.000000 
	C58.020752,1.000000 115.041718,1.000000 172.531342,0.999999 
z"/>
<path fill="none" opacity="1.000000" stroke="none" 
	d="
M1.000000,379.468658 
	C1.332573,379.013977 1.838176,378.891174 1.972817,379.061554 
	C7.794939,386.429108 15.988477,385.010376 23.806738,385.002747 
	C34.965828,384.991882 46.141182,384.630157 57.278790,385.119385 
	C65.876930,385.497070 69.732399,379.824066 73.997002,374.118103 
	C86.695648,357.127441 99.444145,340.173737 112.270157,323.279205 
	C113.090286,322.198944 114.734085,321.099731 115.998665,321.095154 
	C148.798508,320.975891 181.598877,321.000793 215.078354,321.000793 
	C212.436508,330.332947 209.898895,339.272247 207.375397,348.215546 
	C198.565308,379.438843 189.797592,410.674194 180.936386,441.882965 
	C176.816147,456.394226 172.847610,470.961975 168.190002,485.302643 
	C164.816086,495.690857 164.825928,504.876526 173.340942,512.775269 
	C115.748734,513.000000 58.497475,513.000000 1.000000,513.000000 
	C1.000000,468.646088 1.000000,424.291687 1.000000,379.468658 
z"/>
<path fill="none" opacity="1.000000" stroke="none" 
	d="
M0.999999,153.468658 
	C1.680890,153.666580 2.745193,154.217636 2.985983,155.016815 
	C7.656136,170.517059 12.347608,186.012726 16.792318,201.578537 
	C21.729118,218.867676 26.896961,236.117126 30.925816,253.622833 
	C32.094429,258.700562 30.322409,264.774323 28.830584,270.091888 
	C20.737833,298.938385 12.323855,327.694885 3.962240,356.465485 
	C3.502914,358.045929 2.520437,359.474365 1.390735,360.986755 
	C1.000000,291.979095 1.000000,222.958206 0.999999,153.468658 
z"/>
</svg>